<svg width="48" height="48" viewBox="0 0 48 48" fill="none" xmlns="http://www.w3.org/2000/svg">
<circle cx="24" cy="24" r="23.5" stroke="#42695E"/>
<path d="M15.4889 31.688C15.3589 31.688 15.2549 31.636 15.1769 31.532C15.1249 31.428 15.1379 31.324 15.2159 31.22L27.5789 13.28C27.6309 13.228 27.7219 13.202 27.8519 13.202C28.1119 13.202 28.2419 13.293 28.2419 13.475V36.992C28.2419 37.278 28.1379 37.46 27.9299 37.538L26.2919 38.357C26.1879 38.409 26.1099 38.435 26.0579 38.435C25.9539 38.435 25.9019 38.331 25.9019 38.123V16.634L27.1109 15.581L17.2049 30.245C17.1529 30.323 17.1399 30.388 17.1659 30.44C17.2179 30.492 17.2959 30.518 17.3999 30.518C21.5339 30.518 25.6809 30.453 29.8409 30.323L31.4789 30.284C31.5829 30.284 31.6349 30.531 31.6349 31.025C31.6349 31.233 31.6089 31.441 31.5569 31.649C31.5309 31.857 31.4919 31.961 31.4399 31.961C29.4639 31.857 27.3189 31.792 25.0049 31.766C22.7169 31.714 19.5449 31.688 15.4889 31.688Z" fill="#42695E"/>
</svg>
