<svg width="48" height="48" viewBox="0 0 48 48" fill="none" xmlns="http://www.w3.org/2000/svg">
<circle cx="24" cy="24" r="23.5" stroke="#42695E"/>
<path d="M19.3639 32C19.2859 32 19.2469 31.922 19.2469 31.766C19.2469 31.61 19.2859 31.532 19.3639 31.532C20.4299 31.532 21.2099 31.467 21.7039 31.337C22.2239 31.181 22.5749 30.921 22.7569 30.557C22.9649 30.193 23.0689 29.621 23.0689 28.841V18.272C23.0689 17.31 23.0039 16.634 22.8739 16.244C22.7439 15.854 22.4709 15.659 22.0549 15.659C21.5869 15.659 20.6899 15.958 19.3639 16.556H19.3249C19.1949 16.556 19.1039 16.491 19.0519 16.361C18.9999 16.231 19.0259 16.153 19.1299 16.127L25.0189 13.358C25.0449 13.332 25.0839 13.319 25.1359 13.319C25.1879 13.319 25.2399 13.358 25.2919 13.436C25.3439 13.488 25.3699 13.553 25.3699 13.631V28.841C25.3699 29.647 25.4479 30.232 25.6039 30.596C25.7859 30.96 26.1369 31.207 26.6569 31.337C27.1769 31.467 27.9959 31.532 29.1139 31.532C29.1659 31.532 29.1919 31.61 29.1919 31.766C29.1919 31.922 29.1659 32 29.1139 32C28.2559 32 27.5929 31.987 27.1249 31.961L24.2389 31.922L21.3919 31.961C20.8979 31.987 20.2219 32 19.3639 32Z" fill="#42695E"/>
</svg>
