<svg width="48" height="48" viewBox="0 0 48 48" fill="none" xmlns="http://www.w3.org/2000/svg">
<circle cx="24" cy="24" r="23.5" stroke="#42695E"/>
<path d="M22.9014 23.771C24.3834 22.809 25.3974 21.951 25.9434 21.197C26.4894 20.417 26.7624 19.533 26.7624 18.545C26.7624 17.271 26.3724 16.231 25.5924 15.425C24.8124 14.619 23.6814 14.216 22.1994 14.216C20.8474 14.216 19.7424 14.58 18.8844 15.308C18.0264 16.036 17.3634 17.245 16.8954 18.935C16.8954 18.987 16.8304 19.013 16.7004 19.013C16.6224 19.013 16.5444 19 16.4664 18.974C16.4144 18.922 16.4014 18.883 16.4274 18.857L17.9484 12.929C17.9484 12.903 18.0004 12.89 18.1044 12.89C18.3644 12.89 18.4684 12.929 18.4164 13.007C18.3644 13.267 18.3384 13.436 18.3384 13.514C18.3384 13.774 18.4034 13.969 18.5334 14.099C18.6634 14.203 18.8194 14.255 19.0014 14.255C19.2614 14.255 19.7164 14.138 20.3664 13.904C21.0944 13.67 21.6924 13.501 22.1604 13.397C22.6544 13.293 23.2134 13.241 23.8374 13.241C25.3975 13.241 26.6975 13.644 27.7374 14.45C28.7774 15.23 29.2974 16.27 29.2974 17.57C29.2974 18.662 28.8424 19.715 27.9324 20.729C27.0484 21.743 25.5924 22.822 23.5644 23.966L22.9014 23.771ZM17.2074 37.655C20.9514 36.823 23.6294 35.627 25.2414 34.067C26.8534 32.507 27.6594 30.856 27.6594 29.114C27.6594 27.814 27.2434 26.696 26.4114 25.76C25.6054 24.798 24.4354 24.317 22.9014 24.317C21.7574 24.317 20.8344 24.486 20.1324 24.824L20.0544 24.863C19.9504 24.863 19.8724 24.811 19.8204 24.707C19.7684 24.603 19.7814 24.525 19.8594 24.473C20.3014 24.187 20.9124 23.953 21.6924 23.771C22.4724 23.563 23.3044 23.459 24.1884 23.459C26.1125 23.459 27.6335 23.966 28.7514 24.98C29.8695 25.968 30.4285 27.203 30.4285 28.685C30.4285 30.609 29.3235 32.416 27.1134 34.106C24.9034 35.822 21.6534 37.161 17.3634 38.123C17.2594 38.149 17.1814 38.084 17.1294 37.928C17.1034 37.772 17.1294 37.681 17.2074 37.655Z" fill="#42695E"/>
</svg>
