<svg width="48" height="48" viewBox="0 0 48 48" fill="none" xmlns="http://www.w3.org/2000/svg">
<circle cx="24" cy="24" r="23.5" stroke="#42695E"/>
<path d="M16.6832 31.532C19.2832 29.374 21.3242 27.541 22.8062 26.033C24.2882 24.525 25.3672 23.16 26.0432 21.938C26.7452 20.716 27.0962 19.507 27.0962 18.311C27.0962 17.011 26.7322 15.984 26.0042 15.23C25.3022 14.45 24.2882 14.06 22.9622 14.06C20.3882 14.06 18.6072 15.685 17.6192 18.935C17.6192 18.987 17.5672 19.013 17.4632 19.013C17.3852 19.013 17.3072 19 17.2292 18.974C17.1512 18.922 17.1252 18.883 17.1512 18.857L18.6722 12.929C18.6982 12.877 18.7762 12.864 18.9062 12.89C19.0622 12.916 19.1272 12.955 19.1012 13.007C19.0752 13.137 19.0622 13.293 19.0622 13.475C19.0622 13.943 19.2832 14.177 19.7252 14.177C19.9852 14.177 20.3882 14.086 20.9342 13.904C21.5322 13.696 22.0652 13.54 22.5332 13.436C23.0272 13.332 23.5862 13.28 24.2102 13.28C25.8742 13.28 27.2002 13.722 28.1882 14.606C29.2022 15.49 29.7092 16.647 29.7092 18.077C29.7092 19.195 29.3582 20.287 28.6562 21.353C27.9802 22.419 26.9922 23.537 25.6922 24.707C24.4182 25.877 22.4162 27.58 19.6862 29.816C19.5822 29.894 19.5432 29.959 19.5692 30.011C19.6212 30.063 19.7122 30.089 19.8422 30.089C23.3522 30.089 25.7572 30.05 27.0572 29.972C28.3572 29.894 29.2672 29.686 29.7872 29.348C30.3072 29.01 30.6712 28.412 30.8792 27.554C30.9052 27.502 30.9832 27.489 31.1132 27.515C31.2432 27.515 31.3082 27.541 31.3082 27.593L30.8012 31.571C30.8012 31.675 30.7622 31.779 30.6842 31.883C30.6322 31.961 30.5542 32 30.4502 32H16.9562C16.8262 32 16.7222 31.948 16.6442 31.844C16.5922 31.74 16.6052 31.636 16.6832 31.532Z" fill="#42695E"/>
</svg>
