<svg width="22" height="27" viewBox="0 0 22 27" fill="none" xmlns="http://www.w3.org/2000/svg">
<g filter="url(#filter0_d_14_9)">
<path d="M10.5861 3.90476C11.258 3.90476 11.9023 4.15944 12.3773 4.61277C12.8524 5.0661 13.1193 5.68094 13.1193 6.32205C13.1193 6.63949 13.0537 6.95382 12.9264 7.2471C12.7991 7.54038 12.6125 7.80686 12.3773 8.03132C12.1421 8.25579 11.8628 8.43384 11.5555 8.55532C11.2482 8.6768 10.9188 8.73933 10.5861 8.73933C9.9143 8.73933 9.26999 8.48465 8.79494 8.03132C8.31988 7.57799 8.053 6.96315 8.053 6.32205C8.053 5.68094 8.31988 5.0661 8.79494 4.61277C9.26999 4.15944 9.9143 3.90476 10.5861 3.90476ZM10.5861 4.87168C10.183 4.87168 9.79644 5.02448 9.51141 5.29648C9.22638 5.56848 9.06625 5.93738 9.06625 6.32205C9.06625 6.70671 9.22638 7.07561 9.51141 7.34761C9.79644 7.61961 10.183 7.77242 10.5861 7.77242C10.9892 7.77242 11.3758 7.61961 11.6608 7.34761C11.9459 7.07561 12.106 6.70671 12.106 6.32205C12.106 5.93738 11.9459 5.56848 11.6608 5.29648C11.3758 5.02448 10.9892 4.87168 10.5861 4.87168ZM5.82385 9.08742L10.5861 16.5617L15.3484 9.08742C15.8652 8.25587 16.159 7.3373 16.159 6.32205C16.159 4.91162 15.5719 3.55896 14.5267 2.56164C13.4816 1.56431 12.0641 1.00402 10.5861 1.00402C9.10811 1.00402 7.69062 1.56431 6.64551 2.56164C5.60039 3.55896 5.01325 4.91162 5.01325 6.32205C5.01325 7.3373 5.30709 8.25587 5.82385 9.08742ZM16.2097 9.59021L10.5861 18.4085L4.96259 9.59021C4.35464 8.63297 4 7.52102 4 6.32205C4 4.65518 4.69389 3.05658 5.92903 1.87792C7.16417 0.69927 8.83938 0.0371094 10.5861 0.0371094C12.3329 0.0371094 14.0081 0.69927 15.2432 1.87792C16.4784 3.05658 17.1723 4.65518 17.1723 6.32205C17.1723 7.52102 16.8176 8.63297 16.2097 9.59021Z" fill="white"/>
</g>
<defs>
<filter id="filter0_d_14_9" x="0" y="0.0371094" width="21.1722" height="26.3716" filterUnits="userSpaceOnUse" color-interpolation-filters="sRGB">
<feFlood flood-opacity="0" result="BackgroundImageFix"/>
<feColorMatrix in="SourceAlpha" type="matrix" values="0 0 0 0 0 0 0 0 0 0 0 0 0 0 0 0 0 0 127 0" result="hardAlpha"/>
<feOffset dy="4"/>
<feGaussianBlur stdDeviation="2"/>
<feComposite in2="hardAlpha" operator="out"/>
<feColorMatrix type="matrix" values="0 0 0 0 0 0 0 0 0 0 0 0 0 0 0 0 0 0 0.25 0"/>
<feBlend mode="normal" in2="BackgroundImageFix" result="effect1_dropShadow_14_9"/>
<feBlend mode="normal" in="SourceGraphic" in2="effect1_dropShadow_14_9" result="shape"/>
</filter>
</defs>
</svg>
