<svg width="19" height="19" viewBox="0 0 19 19" fill="none" xmlns="http://www.w3.org/2000/svg">
<path d="M15.4375 17.4167C15.7525 17.4167 16.0545 17.2916 16.2772 17.0689C16.4999 16.8462 16.625 16.5441 16.625 16.2292V13.4583C16.625 13.1434 16.4999 12.8413 16.2772 12.6186C16.0545 12.3959 15.7525 12.2708 15.4375 12.2708C14.5113 12.2708 13.6009 12.1283 12.73 11.8354C12.5218 11.7697 12.2996 11.7623 12.0875 11.8139C11.8754 11.8655 11.6814 11.9743 11.5267 12.1283L10.3867 13.2683C8.41723 12.1936 6.79854 10.5749 5.72379 8.60542L6.85587 7.47333C7.18046 7.16458 7.29921 6.70542 7.15671 6.26208C6.87171 5.39917 6.72921 4.48875 6.72921 3.5625C6.72921 3.24756 6.6041 2.94551 6.3814 2.72281C6.1587 2.50011 5.85665 2.375 5.54171 2.375H2.77087C2.45593 2.375 2.15388 2.50011 1.93118 2.72281C1.70849 2.94551 1.58337 3.24756 1.58337 3.5625C1.58337 11.2021 7.79796 17.4167 15.4375 17.4167ZM2.77087 3.16667H5.54171C5.64669 3.16667 5.74737 3.20837 5.8216 3.2826C5.89584 3.35684 5.93754 3.45752 5.93754 3.5625C5.93754 4.57583 6.09587 5.56542 6.40462 6.5075C6.44421 6.61833 6.43629 6.77667 6.30962 6.90333L4.75004 8.455C6.05629 11.0121 7.97212 12.9279 10.5371 14.25L12.0809 12.6904C12.1917 12.5796 12.3421 12.5479 12.4846 12.5875C13.4346 12.9042 14.4242 13.0625 15.4375 13.0625C15.5425 13.0625 15.6432 13.1042 15.7174 13.1784C15.7917 13.2527 15.8334 13.3534 15.8334 13.4583V16.2292C15.8334 16.3341 15.7917 16.4348 15.7174 16.5091C15.6432 16.5833 15.5425 16.625 15.4375 16.625C8.23337 16.625 2.37504 10.7667 2.37504 3.5625C2.37504 3.45752 2.41674 3.35684 2.49098 3.2826C2.56521 3.20837 2.66589 3.16667 2.77087 3.16667Z" fill="white"/>
</svg>
