<svg width="40" height="17" viewBox="0 0 40 17" fill="none" xmlns="http://www.w3.org/2000/svg">
<path d="M33.5016 16.815C37.0849 16.815 40 13.0434 40 8.4074C40 3.77143 37.0849 0 33.5016 0C30.1122 0 27.3221 3.3749 27.03 7.66353H22.3529V5.89497L0 5.89497V10.9194L22.353 10.9194V9.15106H27.0301C27.3223 13.4399 30.1122 16.815 33.5016 16.815ZM21.4898 9.43208L0.863293 9.43208V7.38292L21.4898 7.38292V9.43208ZM27.8662 8.4074C27.8662 4.59196 30.3944 1.48795 33.5017 1.48795C36.6091 1.48795 39.1372 4.59196 39.1372 8.4074C39.1372 12.223 36.6091 15.3273 33.5017 15.3273C30.3944 15.3273 27.8662 12.223 27.8662 8.4074Z" fill="#42695E"/>
</svg>
