<svg width="21" height="27" viewBox="0 0 21 27" fill="none" xmlns="http://www.w3.org/2000/svg">
<g filter="url(#filter0_d_14_29)">
<path d="M10.5 4C11.163 4 11.7989 4.26339 12.2678 4.73223C12.7366 5.20107 13 5.83696 13 6.5C13 6.8283 12.9353 7.15339 12.8097 7.45671C12.6841 7.76002 12.4999 8.03562 12.2678 8.26777C12.0356 8.49991 11.76 8.68406 11.4567 8.8097C11.1534 8.93534 10.8283 9 10.5 9C9.83696 9 9.20107 8.73661 8.73223 8.26777C8.26339 7.79893 8 7.16304 8 6.5C8 5.83696 8.26339 5.20107 8.73223 4.73223C9.20107 4.26339 9.83696 4 10.5 4ZM10.5 5C10.1022 5 9.72064 5.15804 9.43934 5.43934C9.15804 5.72064 9 6.10218 9 6.5C9 6.89782 9.15804 7.27936 9.43934 7.56066C9.72064 7.84196 10.1022 8 10.5 8C10.8978 8 11.2794 7.84196 11.5607 7.56066C11.842 7.27936 12 6.89782 12 6.5C12 6.10218 11.842 5.72064 11.5607 5.43934C11.2794 5.15804 10.8978 5 10.5 5ZM5.8 9.36L10.5 17.09L15.2 9.36C15.71 8.5 16 7.55 16 6.5C16 5.04131 15.4205 3.64236 14.3891 2.61091C13.3576 1.57946 11.9587 1 10.5 1C9.04131 1 7.64236 1.57946 6.61091 2.61091C5.57946 3.64236 5 5.04131 5 6.5C5 7.55 5.29 8.5 5.8 9.36ZM16.05 9.88L10.5 19L4.95 9.88C4.35 8.89 4 7.74 4 6.5C4 4.77609 4.68482 3.12279 5.90381 1.90381C7.12279 0.684819 8.77609 0 10.5 0C12.2239 0 13.8772 0.684819 15.0962 1.90381C16.3152 3.12279 17 4.77609 17 6.5C17 7.74 16.65 8.89 16.05 9.88Z" fill="black"/>
</g>
<defs>
<filter id="filter0_d_14_29" x="0" y="0" width="21" height="27" filterUnits="userSpaceOnUse" color-interpolation-filters="sRGB">
<feFlood flood-opacity="0" result="BackgroundImageFix"/>
<feColorMatrix in="SourceAlpha" type="matrix" values="0 0 0 0 0 0 0 0 0 0 0 0 0 0 0 0 0 0 127 0" result="hardAlpha"/>
<feOffset dy="4"/>
<feGaussianBlur stdDeviation="2"/>
<feComposite in2="hardAlpha" operator="out"/>
<feColorMatrix type="matrix" values="0 0 0 0 0 0 0 0 0 0 0 0 0 0 0 0 0 0 0.25 0"/>
<feBlend mode="normal" in2="BackgroundImageFix" result="effect1_dropShadow_14_29"/>
<feBlend mode="normal" in="SourceGraphic" in2="effect1_dropShadow_14_29" result="shape"/>
</filter>
</defs>
</svg>
