<svg width="27" height="27" viewBox="0 0 27 27" fill="none" xmlns="http://www.w3.org/2000/svg">
<g filter="url(#filter0_d_14_26)">
<path d="M7 0H20C20.7956 0 21.5587 0.400356 22.1213 1.11299C22.6839 1.82563 23 2.79218 23 3.8V15.2C23 16.2078 22.6839 17.1744 22.1213 17.887C21.5587 18.5996 20.7956 19 20 19H7C6.20435 19 5.44129 18.5996 4.87868 17.887C4.31607 17.1744 4 16.2078 4 15.2V3.8C4 2.79218 4.31607 1.82563 4.87868 1.11299C5.44129 0.400356 6.20435 0 7 0ZM7 1.26667C6.5 1.26667 6.06 1.482 5.72 1.862L13.5 8.23333L21.28 1.862C20.94 1.482 20.5 1.26667 20 1.26667H7ZM13.5 9.766L5.13 2.888C5.05 3.16667 5 3.48333 5 3.8V15.2C5 15.8719 5.21071 16.5162 5.58579 16.9913C5.96086 17.4664 6.46957 17.7333 7 17.7333H20C20.5304 17.7333 21.0391 17.4664 21.4142 16.9913C21.7893 16.5162 22 15.8719 22 15.2V3.8C22 3.48333 21.95 3.16667 21.87 2.888L13.5 9.766Z" fill="black"/>
</g>
<defs>
<filter id="filter0_d_14_26" x="0" y="0" width="27" height="27" filterUnits="userSpaceOnUse" color-interpolation-filters="sRGB">
<feFlood flood-opacity="0" result="BackgroundImageFix"/>
<feColorMatrix in="SourceAlpha" type="matrix" values="0 0 0 0 0 0 0 0 0 0 0 0 0 0 0 0 0 0 127 0" result="hardAlpha"/>
<feOffset dy="4"/>
<feGaussianBlur stdDeviation="2"/>
<feComposite in2="hardAlpha" operator="out"/>
<feColorMatrix type="matrix" values="0 0 0 0 0 0 0 0 0 0 0 0 0 0 0 0 0 0 0.25 0"/>
<feBlend mode="normal" in2="BackgroundImageFix" result="effect1_dropShadow_14_26"/>
<feBlend mode="normal" in="SourceGraphic" in2="effect1_dropShadow_14_26" result="shape"/>
</filter>
</defs>
</svg>
