<svg width="26" height="24" viewBox="0 0 26 24" fill="none" xmlns="http://www.w3.org/2000/svg">
<g filter="url(#filter0_d_14_18)">
<path d="M6.84211 0.777832H19.1579C19.9117 0.777832 20.6346 1.07894 21.1676 1.61493C21.7006 2.15091 22 2.87786 22 3.63586V12.2099C22 12.9679 21.7006 13.6949 21.1676 14.2309C20.6346 14.7668 19.9117 15.068 19.1579 15.068H6.84211C6.08833 15.068 5.36543 14.7668 4.83243 14.2309C4.29944 13.6949 4 12.9679 4 12.2099V3.63586C4 2.87786 4.29944 2.15091 4.83243 1.61493C5.36543 1.07894 6.08833 0.777832 6.84211 0.777832ZM6.84211 1.73051C6.36842 1.73051 5.95158 1.89246 5.62947 2.17826L13 6.97022L20.3705 2.17826C20.0484 1.89246 19.6316 1.73051 19.1579 1.73051H6.84211ZM13 8.12296L5.07053 2.94993C4.99474 3.15952 4.94737 3.39769 4.94737 3.63586V12.2099C4.94737 12.7153 5.14699 13.1999 5.50232 13.5572C5.85766 13.9145 6.33959 14.1153 6.84211 14.1153H19.1579C19.6604 14.1153 20.1423 13.9145 20.4977 13.5572C20.853 13.1999 21.0526 12.7153 21.0526 12.2099V3.63586C21.0526 3.39769 21.0053 3.15952 20.9295 2.94993L13 8.12296Z" fill="white"/>
</g>
<defs>
<filter id="filter0_d_14_18" x="0" y="0.777832" width="26" height="22.29" filterUnits="userSpaceOnUse" color-interpolation-filters="sRGB">
<feFlood flood-opacity="0" result="BackgroundImageFix"/>
<feColorMatrix in="SourceAlpha" type="matrix" values="0 0 0 0 0 0 0 0 0 0 0 0 0 0 0 0 0 0 127 0" result="hardAlpha"/>
<feOffset dy="4"/>
<feGaussianBlur stdDeviation="2"/>
<feComposite in2="hardAlpha" operator="out"/>
<feColorMatrix type="matrix" values="0 0 0 0 0 0 0 0 0 0 0 0 0 0 0 0 0 0 0.25 0"/>
<feBlend mode="normal" in2="BackgroundImageFix" result="effect1_dropShadow_14_18"/>
<feBlend mode="normal" in="SourceGraphic" in2="effect1_dropShadow_14_18" result="shape"/>
</filter>
</defs>
</svg>
